<svg id="Layer_1" data-name="Layer 1" xmlns="http://www.w3.org/2000/svg" viewBox="0 0 807.35 110.27">
                  <defs>
                    <style>.cls-1{fill:#9fba29;}</style>
                  </defs>
                  <path class="cls-1" d="M46.32,29.36l-.92,9a30.4,30.4,0,0,0-11.71-2.53,16.78,16.78,0,0,0-13.9,6.78,23.87,23.87,0,0,0-4.94,15.16,24,24,0,0,0,4.6,14.93q5.28,7,14.93,7A20.61,20.61,0,0,0,46,76.34l.8,9.64Q41.62,88.4,33.23,88.4a28.53,28.53,0,0,1-21.59-9.08Q3.36,70.59,3.37,57.73q0-13.44,8.27-22.06t21.59-8.61A34.46,34.46,0,0,1,46.32,29.36Z" transform="translate(-3.37 -0.87)"></path><path class="cls-1" d="M59.19,87V28.44h10.1v9.07h.23A18.79,18.79,0,0,1,76,30a15.38,15.38,0,0,1,8.84-2.93,37.22,37.22,0,0,1,7.12.8v9.65a15.67,15.67,0,0,0-6-1q-7.24,0-11.6,6.43T70,60.37V87Z" transform="translate(-3.37 -0.87)"></path><path class="cls-1" d="M148.78,73.81v10.8q-10.46,3.78-18.5,3.79-15.15,0-23-8.73-7.35-8.16-7.35-23,0-13.09,7.58-21.36t19.87-8.27q25.85,0,25.85,33.08H111.45a18.78,18.78,0,0,0,5.85,14.13,18.5,18.5,0,0,0,13.44,5.4,32.39,32.39,0,0,0,10.69-2.07A25.08,25.08,0,0,0,148.78,73.81ZM111.45,52.1h30.32a17.53,17.53,0,0,0-3.9-11.66,13.23,13.23,0,0,0-10.69-4.65,14,14,0,0,0-11.48,5.28A20.29,20.29,0,0,0,111.45,52.1Z" transform="translate(-3.37 -0.87)"></path><path class="cls-1" d="M171.17,41.76l-.57-9.19a37.41,37.41,0,0,1,19.3-5.51q12.28,0,17.92,6t5.62,18.21V75.53A100.37,100.37,0,0,0,213.9,87H203.8V79.44h-.23q-6.33,9-18.15,9-9.88,0-15.51-4.37-6-4.71-6-13.9,0-10,9.42-15.16,7.45-4.14,17.8-4.13h11.49q0-7.7-3.28-11.37t-11.2-3.68A25.62,25.62,0,0,0,171.17,41.76Zm31.48,22.51V59.11q-1.16,0-3.45-.12c-1.53-.07-2.68-.11-3.45-.11q-20.33,0-20.33,11.25A8.59,8.59,0,0,0,179,77.25a11.91,11.91,0,0,0,7.35,2.42q7.8,0,12.17-4.48A14.76,14.76,0,0,0,202.65,64.27Z" transform="translate(-3.37 -0.87)"></path><path class="cls-1" d="M262.83,28.44v8.73h-15.5v32c0,3.3.86,5.86,2.58,7.7a8.53,8.53,0,0,0,6.49,2.76,13.26,13.26,0,0,0,7.35-2.07v9.19a35.11,35.11,0,0,1-9.19,1.61q-18,0-18-17V37.17H223.32V28.44h13.21V14.88l10.8-3.44v17Z" transform="translate(-3.37 -0.87)"></path><path class="cls-1" d="M289.14,3.17V15.34H277V3.17ZM277.65,87V28.44h10.8V87Z" transform="translate(-3.37 -0.87)"></path><path class="cls-1" d="M355.18,28.44,334.16,87H321.3l-21-58.58h11.83L328,76.22h.23l16.19-47.78Z" transform="translate(-3.37 -0.87)"></path><path class="cls-1" d="M410.54,73.81v10.8q-10.44,3.78-18.49,3.79-15.17,0-23-8.73-7.35-8.16-7.35-23,0-13.09,7.58-21.36t19.87-8.27Q415,27.06,415,60.14H373.21a18.79,18.79,0,0,0,5.86,14.13,18.5,18.5,0,0,0,13.44,5.4,32.29,32.29,0,0,0,10.68-2.07A24.82,24.82,0,0,0,410.54,73.81ZM373.21,52.1h30.33a17.49,17.49,0,0,0-3.91-11.66A13.2,13.2,0,0,0,389,35.79a14,14,0,0,0-11.49,5.28A20.36,20.36,0,0,0,373.21,52.1Z" transform="translate(-3.37 -0.87)"></path><path class="cls-1" d="M467.63,29.36l-.92,9A30.4,30.4,0,0,0,455,35.79a16.76,16.76,0,0,0-13.9,6.78,23.87,23.87,0,0,0-4.94,15.16,24.08,24.08,0,0,0,4.59,14.93q5.29,7,14.94,7a20.61,20.61,0,0,0,11.6-3.33l.8,9.64q-5.16,2.42-13.55,2.42a28.55,28.55,0,0,1-21.6-9.08q-8.26-8.73-8.27-21.59,0-13.44,8.27-22.06t21.6-8.61A34.5,34.5,0,0,1,467.63,29.36Z" transform="translate(-3.37 -0.87)"></path><path class="cls-1" d="M483.94,41.76l-.57-9.19a37.37,37.37,0,0,1,19.29-5.51q12.29,0,17.92,6t5.63,18.21V75.53A98.06,98.06,0,0,0,526.67,87H516.56V79.44h-.23q-6.32,9-18.15,9-9.87,0-15.5-4.37-6-4.71-6-13.9,0-10,9.42-15.16,7.47-4.14,17.81-4.13h11.48q0-7.7-3.27-11.37t-11.2-3.68A25.6,25.6,0,0,0,483.94,41.76Zm31.47,22.51V59.11c-.76,0-1.91,0-3.44-.12s-2.69-.11-3.45-.11q-20.32,0-20.33,11.25a8.6,8.6,0,0,0,3.56,7.12,11.91,11.91,0,0,0,7.35,2.42q7.81,0,12.18-4.48A14.8,14.8,0,0,0,515.41,64.27Z" transform="translate(-3.37 -0.87)"></path><path class="cls-1" d="M544.36,111.14V28.44h10.33v8.27h.46q6.29-9.64,19.77-9.65,12.12,0,19,9,6.18,8,6.17,20.67,0,13.22-6,21.83-6.81,9.87-19.28,9.88Q561,88.4,555.15,79v32.16ZM588.58,57.5q0-9-3.68-14.82a13.7,13.7,0,0,0-12.4-6.89,15.19,15.19,0,0,0-13.1,6.89,26.22,26.22,0,0,0-4.25,15.16,26.22,26.22,0,0,0,4,14.59,15.1,15.1,0,0,0,13.21,7.24q7.93,0,12.41-7.58A28.16,28.16,0,0,0,588.58,57.5Z" transform="translate(-3.37 -0.87)"></path><path class="cls-1" d="M609.6,85.18l.57-9.65a24.48,24.48,0,0,0,13.44,4.14A13.82,13.82,0,0,0,631,77.83a7.14,7.14,0,0,0,3.68-6.55q0-4.25-6.55-7.92Q622,60.14,615.8,56.81q-6.56-4.71-6.55-11.72,0-8.73,6-13.55,5.52-4.48,14.71-4.48a48.1,48.1,0,0,1,13.44,2.3l-.92,9.42a22.06,22.06,0,0,0-5.52-2,25.45,25.45,0,0,0-5.85-1,13.77,13.77,0,0,0-7.36,1.84,5.84,5.84,0,0,0-3,5.28q0,4.83,6.55,8.16,6.08,3.21,12.29,6.31a14.91,14.91,0,0,1,6.54,12.75q0,8.85-6.32,13.79-5.62,4.47-14.12,4.48Q615.57,88.4,609.6,85.18Z" transform="translate(-3.37 -0.87)"></path><path class="cls-1" d="M711,28.44V87H700.57V77.71h-.23a17.59,17.59,0,0,1-7.7,7.81,23.61,23.61,0,0,1-11.49,2.88q-21.93,0-21.93-25.16V28.44H670V58.76q0,10.68,2.65,15.51,2.87,5.16,9.76,5.4,8.83.22,13.55-6.55,4.24-6.32,4.25-17.57V28.44Z" transform="translate(-3.37 -0.87)"></path><path class="cls-1" d="M730.77,87V.87h10.8V87Z" transform="translate(-3.37 -0.87)"></path><path class="cls-1" d="M806.24,73.81v10.8q-10.46,3.78-18.49,3.79-15.16,0-23-8.73-7.35-8.16-7.35-23,0-13.09,7.58-21.36t19.87-8.27q25.85,0,25.85,33.08H768.91a18.75,18.75,0,0,0,5.86,14.13,18.46,18.46,0,0,0,13.43,5.4,32.39,32.39,0,0,0,10.69-2.07A25,25,0,0,0,806.24,73.81ZM768.91,52.1h30.32a17.53,17.53,0,0,0-3.9-11.66,13.23,13.23,0,0,0-10.69-4.65,14,14,0,0,0-11.48,5.28A20.29,20.29,0,0,0,768.91,52.1Z" transform="translate(-3.37 -0.87)"></path>
              </svg>
